<?xml version="1.0" encoding="UTF-8" standalone="no"?>
<!-- Generator: Adobe Illustrator 16.0.0, SVG Export Plug-In . SVG Version: 6.00 Build 0)  -->

<svg
   xmlns:dc="http://purl.org/dc/elements/1.1/"
   xmlns:cc="http://creativecommons.org/ns#"
   xmlns:rdf="http://www.w3.org/1999/02/22-rdf-syntax-ns#"
   xmlns:svg="http://www.w3.org/2000/svg"
   xmlns="http://www.w3.org/2000/svg"
   xmlns:sodipodi="http://sodipodi.sourceforge.net/DTD/sodipodi-0.dtd"
   xmlns:inkscape="http://www.inkscape.org/namespaces/inkscape"
   version="1.1"
   id="newspaper"
   x="0px"
   y="0px"
   width="599px"
   height="247px"
   viewBox="0 0 599 247"
   enable-background="new 0 0 599 247"
   xml:space="preserve"
   sodipodi:docname="newspaper.svg"
   inkscape:version="0.92.0 r15299"><title
     id="title262">newspaper</title><metadata
     id="metadata260"><rdf:RDF><cc:Work
         rdf:about=""><dc:format>image/svg+xml</dc:format><dc:type
           rdf:resource="http://purl.org/dc/dcmitype/StillImage" /><dc:title>newspaper</dc:title><dc:date>8/14/2017</dc:date><dc:creator><cc:Agent><dc:title>cactus cowboy</dc:title></cc:Agent></dc:creator></cc:Work></rdf:RDF></metadata><defs
     id="defs258" /><sodipodi:namedview
     pagecolor="#ffffff"
     bordercolor="#666666"
     borderopacity="1"
     objecttolerance="10"
     gridtolerance="10"
     guidetolerance="10"
     inkscape:pageopacity="0"
     inkscape:pageshadow="2"
     inkscape:window-width="1920"
     inkscape:window-height="1052"
     id="namedview256"
     showgrid="false"
     inkscape:zoom="1"
     inkscape:cx="299.5"
     inkscape:cy="163.5"
     inkscape:window-x="-9"
     inkscape:window-y="-9"
     inkscape:window-maximized="1"
     inkscape:current-layer="newspaper" /><g
     id="paper_parts"><path
       fill="#FFFFFF"
       stroke="#000000"
       stroke-width="2.2223"
       stroke-linejoin="round"
       d="M89.182,31.97   c92.285,2.43,184.715,1.177,276.811-5.459c45.297-3.264,90.457-8.07,135.553-13.408c10.552-1.249,21.098-2.551,31.633-3.934   c5.598-0.735,14.227-3.823,19.707-1.166c14.451,7.007,25.072,33.896,30.015,48.065c10.89,31.222,13.984,78.765-0.312,109.27   c-6.936,14.799-17.229,31.625-35.476,31.621c-22.615-0.005-45.232-1.157-67.874-0.95c-91.901,0.843-183.628,9.008-274.556,22.143   c-35.398,5.113-70.588,11.505-105.961,16.77c-14.724,2.192-33.065,8.531-46.89,0.395c-13.787-8.113-21.895-25.691-27.462-39.971   c-11.808-30.281-14.304-63.699-16.21-95.847C7.527,88.852,4.446,74.551,8.656,64.256c5.009-12.25,29.076-9.631,39.82-10.825   c-0.799-5.336-2.23-10.542-3.454-15.789c7.768,0.261,13.192-3.28,20.083-6.121C72.579,28.442,81.498,31.621,89.182,31.97   C209.168,35.129,82.056,31.646,89.182,31.97z"
       id="path10" /><path
       stroke="#000000"
       stroke-width="2.2223"
       stroke-linejoin="round"
       d="M118.293,116.341   c120.977-12.096,242.072-19.58,363.479-25.6c17.704-0.878,35.394-1.643,53.109-2.192c8.165-0.253,16.319-0.583,24.48-0.949   c6.047-0.271,12.093-0.542,18.139-0.812c2.517-0.113,2.64,7.101,3.107,9.324c-120.701,5.231-241.585,9.694-361.963,20.348   c-17.699,1.567-35.402,3.081-53.108,4.569c-8.692,0.73-17.375,1.492-26.059,2.326c-5.638,0.542-11.277,1.083-16.916,1.624   C118.014,125.415,119.063,120.305,118.293,116.341z"
       id="path12" /><path
       fill="#A89187"
       stroke="#A89187"
       stroke-width="2.2223"
       stroke-linejoin="round"
       d="M78.821,235.988   c13.778-7.7,21.683-16.467,26.616-31.679c2.016-6.217,0.995-11.948,7.798-13.405c7.803-1.673,15.632-3.771,23.514-5.028   c29.881-4.768,59.579-9.719,89.768-12.077c59.249-4.628,118.685-8.125,178.053-10.885c31.743-1.476,63.465-3.327,95.206-4.86   c14.445-0.697,28.887-1.479,43.33-2.23c13.107-0.681,31.813,2.206,43.916-3.22c-1.748,14.536-11.189,25.726-20.599,36.312   c-9.354,10.521-22.785,7.661-35.648,7.354c-28.771-0.685-57.833-0.779-86.586,0.322c-62.284,2.388-124.836,4.429-186.582,13.751   c-62.316,9.408-124.638,18.776-186.927,28.359C73.394,237.798,76.107,236.893,78.821,235.988z"
       id="path14" /><path
       fill="#FFFFFF"
       stroke="#000000"
       stroke-width="2.2223"
       stroke-linejoin="round"
       d="M491.549,28.022   c14.386-2.007,28.771-4.015,43.158-6.022c4.796-0.669,8.862-3.078,11.455,1.243c3.916,6.527,7.833,13.054,11.749,19.582   c-14.985,2.306-29.972,4.611-44.957,6.917c-4.771,0.734-8.663,3.234-10.962-1.267C498.511,41.657,495.03,34.84,491.549,28.022z"
       id="path16" /><line
       fill="none"
       stroke="#000000"
       stroke-width="2.2223"
       stroke-linejoin="round"
       x1="495.989"
       y1="30.49"
       x2="542.615"
       y2="23.582"
       id="line18" /><line
       fill="none"
       stroke="#000000"
       stroke-width="2.2223"
       stroke-linejoin="round"
       x1="497.223"
       y1="33.45"
       x2="511.531"
       y2="31.228"
       id="line20" /><line
       fill="none"
       stroke="#000000"
       stroke-width="2.2223"
       stroke-linejoin="round"
       x1="517.452"
       y1="30.734"
       x2="542.862"
       y2="26.787"
       id="line22" /><line
       fill="none"
       stroke="#000000"
       stroke-width="2.2223"
       stroke-linejoin="round"
       x1="498.703"
       y1="36.41"
       x2="545.329"
       y2="29.503"
       id="line24" /><line
       fill="none"
       stroke="#000000"
       stroke-width="2.2223"
       stroke-linejoin="round"
       x1="501.17"
       y1="40.109"
       x2="527.073"
       y2="36.41"
       id="line26" /><line
       fill="none"
       stroke="#000000"
       stroke-width="2.2223"
       stroke-linejoin="round"
       x1="542.369"
       y1="33.695"
       x2="546.81"
       y2="33.201"
       id="line28" /><line
       fill="none"
       stroke="#000000"
       stroke-width="2.2223"
       stroke-linejoin="round"
       x1="529.541"
       y1="35.917"
       x2="540.148"
       y2="34.437"
       id="line30" /><line
       fill="none"
       stroke="#000000"
       stroke-width="2.2223"
       stroke-linejoin="round"
       x1="503.391"
       y1="43.812"
       x2="549.523"
       y2="36.655"
       id="line32" /><line
       fill="none"
       stroke="#000000"
       stroke-width="2.2223"
       stroke-linejoin="round"
       x1="505.364"
       y1="47.51"
       x2="516.959"
       y2="45.536"
       id="line34" /><line
       fill="none"
       stroke="#000000"
       stroke-width="2.2223"
       stroke-linejoin="round"
       x1="520.906"
       y1="45.043"
       x2="538.175"
       y2="42.331"
       id="line36" /><path
       fill="#A89187"
       stroke="#000000"
       stroke-width="2.2223"
       stroke-linejoin="round"
       d="M491.549,169.626   c17.352-0.861,34.692-1.724,52.056-2.313c10.448-0.354,12.529,0.239,16.526-9.775c2.649-6.638,4.222-14.563,4.441-21.71   c0.213-6.933-1.248-13.993-2.714-20.723c-1.731-7.951-2.051-7.136-9.989-6.738c-20.189,1.013-40.378,2.026-60.567,3.04   C495.043,131.125,490.417,150.027,491.549,169.626z"
       id="path38" /><path
       fill="none"
       stroke="#000000"
       stroke-width="2.2223"
       stroke-linejoin="round"
       d="M506.845,140.022   c3.396,3.9-2.374,21.908-7.648,19.735C493.096,157.244,502.431,140.937,506.845,140.022z"
       id="path40" /><path
       fill="none"
       stroke="#000000"
       stroke-width="2.2223"
       stroke-linejoin="round"
       d="M544.836,114.612   c10.974,7.534-1.108,49.001-15.049,46.133C515.803,157.867,530.009,112.734,544.836,114.612z"
       id="path42" /><line
       fill="none"
       stroke="#000000"
       stroke-width="2.2223"
       stroke-linejoin="round"
       x1="539.162"
       y1="137.556"
       x2="519.919"
       y2="130.647"
       id="line44" /><line
       fill="none"
       stroke="#000000"
       stroke-width="2.2223"
       stroke-linejoin="round"
       x1="502.65"
       y1="150.137"
       x2="496.482"
       y2="147.67"
       id="line46" /><path
       fill="none"
       stroke="#000000"
       stroke-width="2.2223"
       stroke-linejoin="round"
       d="M546.316,141.502   c2.632,7.483,5.263,14.967,7.895,22.45c-5.592,0-11.185,0-16.776,0c1.233-4.029,2.468-8.06,3.701-12.089"
       id="path48" /><path
       fill="none"
       stroke="#000000"
       stroke-width="2.2223"
       stroke-linejoin="round"
       d="M505.857,151.863   c1.563,3.289,3.125,6.579,4.688,9.868c-3.454,0-6.907,0-10.361,0c1.029-1.267,1.958-2.909,3.207-3.947"
       id="path50" /><line
       fill="none"
       stroke="#000000"
       stroke-width="2.2223"
       stroke-linejoin="round"
       x1="491.056"
       y1="175.054"
       x2="554.211"
       y2="172.093"
       id="line52" /><line
       fill="none"
       stroke="#000000"
       stroke-width="2.2223"
       stroke-linejoin="round"
       x1="490.068"
       y1="179.001"
       x2="553.224"
       y2="176.287"
       id="line54" /><line
       fill="none"
       stroke="#000000"
       stroke-width="2.2223"
       stroke-linejoin="round"
       x1="490.068"
       y1="183.441"
       x2="553.224"
       y2="180.48"
       id="line56" /><line
       fill="none"
       stroke="#000000"
       stroke-width="2.2223"
       stroke-linejoin="round"
       x1="489.082"
       y1="187.389"
       x2="552.237"
       y2="184.675"
       id="line58" /><line
       fill="none"
       stroke="#000000"
       stroke-width="2.2223"
       stroke-linejoin="round"
       x1="487.108"
       y1="191.089"
       x2="549.523"
       y2="189.608"
       id="line60" /><line
       fill="none"
       stroke="#000000"
       stroke-width="2.2223"
       stroke-linejoin="round"
       x1="488.342"
       y1="193.803"
       x2="548.29"
       y2="194.05"
       id="line62" /><path
       fill="#FFFFFF"
       stroke="#000000"
       stroke-width="2.2223"
       stroke-linejoin="round"
       d="M87.455,39.616   c14.654,0.134,29.308,0.268,43.961,0.401c4.861,0.044,9.256-1.716,11.318,2.888c3.119,6.962,6.237,13.924,9.355,20.887   c-15.054,0-30.107,0-45.161,0c-4.834,0-8.879,1.782-10.771-2.854C93.257,53.83,90.356,46.723,87.455,39.616z"
       id="path64" /><line
       fill="none"
       stroke="#000000"
       stroke-width="2.2223"
       stroke-linejoin="round"
       x1="93.623"
       y1="43.318"
       x2="140.742"
       y2="43.318"
       id="line66" /><line
       fill="none"
       stroke="#000000"
       stroke-width="2.2223"
       stroke-linejoin="round"
       x1="94.363"
       y1="46.278"
       x2="108.918"
       y2="46.278"
       id="line68" /><line
       fill="none"
       stroke="#000000"
       stroke-width="2.2223"
       stroke-linejoin="round"
       x1="114.839"
       y1="46.523"
       x2="140.742"
       y2="46.523"
       id="line70" /><line
       fill="none"
       stroke="#000000"
       stroke-width="2.2223"
       stroke-linejoin="round"
       x1="95.596"
       y1="49.732"
       x2="142.469"
       y2="49.732"
       id="line72" /><line
       fill="none"
       stroke="#000000"
       stroke-width="2.2223"
       stroke-linejoin="round"
       x1="97.323"
       y1="53.431"
       x2="123.474"
       y2="53.431"
       id="line74" /><line
       fill="none"
       stroke="#000000"
       stroke-width="2.2223"
       stroke-linejoin="round"
       x1="129.641"
       y1="53.924"
       x2="143.456"
       y2="53.924"
       id="line76" /><line
       fill="none"
       stroke="#000000"
       stroke-width="2.2223"
       stroke-linejoin="round"
       x1="99.05"
       y1="57.626"
       x2="146.17"
       y2="57.626"
       id="line78" /><line
       fill="none"
       stroke="#000000"
       stroke-width="2.2223"
       stroke-linejoin="round"
       x1="100.53"
       y1="61.574"
       x2="147.403"
       y2="61.574"
       id="line80" /><path
       fill="#A89187"
       stroke="#000000"
       stroke-width="2.2223"
       stroke-linejoin="round"
       d="M134.082,229.574   c27.771-4.646,55.493-9.547,83.381-13.431c12.095-1.685,34.889,0.015,43.175-9.513c8.276-9.516,10.115-25.569,10.115-37.621   c0-12.693-2.078-25.822-7.154-37.499c-1.329-3.057-4.136-12.185-7.997-11.849c-5.748,0.501-11.496,1.002-17.244,1.503   c-33.443,2.914-66.886,5.828-100.329,8.742c6.237,16.008,10.455,33.324,9.127,50.573   C145.819,197.852,139.159,213.127,134.082,229.574z"
       id="path82" /><path
       fill="#A89187"
       stroke="#000000"
       stroke-width="2.2223"
       stroke-linejoin="round"
       d="M207.104,153.838   c3.933-13.333,9.498-20.986,23.93-23.437c21.544-3.658,29.586,15.146,25.903,33.551c-2.362,11.807-3.429,31.982-19.366,33.428   c-17.435,1.581-28.58-13.305-29.727-28.987C201.896,175.377,194.63,144.088,207.104,153.838z"
       id="path84" /><path
       fill="none"
       stroke="#000000"
       stroke-width="2.2223"
       stroke-linejoin="round"
       d="M215.739,188.622   c-3.716,5.967-11.583,6.649-16.405,11.472c-5.08,5.079-6.756,12.984-11.965,17.886"
       id="path86" /><path
       fill="none"
       stroke="#000000"
       stroke-width="2.2223"
       stroke-linejoin="round"
       d="M251.757,185.415   c4.071,1.203,13.594,4.045,13.075,9.128"
       id="path88" /><path
       fill="none"
       stroke="#000000"
       stroke-width="2.2223"
       stroke-linejoin="round"
       d="M147.403,177.521   c1.671-0.434,6.69-0.723,6.635-2.599c-0.062-2.107-1.394-7.255,0.931-7.771c5.912-1.314,1.92-9.1,1.069-14.3   c10.908-1.604,8.833,1.082,10.855,11.595c1.637,0.053,4.393-0.63,5.921-1.233c-0.681-2.401-0.206-3.306,0-5.674   c4.025,4.171,1.652,10.222,9.375,6.907c-2.303-9.95-4.605-19.9-6.908-29.851c4.039-0.311,8.078-0.621,12.118-0.932   c2.795-0.215-0.066,5.673,5.891,4.879c7.96-1.061,1.144,4.916,5.921,7.895c1.752,1.093,9.145-1.193,11.348-1.48"
       id="path90" /><path
       fill="none"
       stroke="#000000"
       stroke-width="2.2223"
       stroke-linejoin="round"
       d="M257.678,157.291   c7.036-2.807,2.332-8.027,3.207-15.789c0.805,0.975,1.981,1.688,2.714,2.714c-1.43-4.051-4.004-8.088-1.974-12.335   c1.023,1.103,2.438,2.171,3.207,3.454"
       id="path92" /><path
       fill="none"
       stroke="#000000"
       stroke-width="2.2223"
       stroke-linejoin="round"
       d="M240.162,165.186   c2.152,4.688,8.751,9.337,1.48,11.842c-3.953,1.361-12.696-3.009-5.428-5.428"
       id="path94" /><path
       fill="#A89187"
       stroke="#000000"
       stroke-width="2.2223"
       stroke-linejoin="round"
       d="M236.708,179.741   c4.774,0.468,8.342-0.008,13.568,0.739c-1.583,5.036-17.496,5.979-22.45,5.182C230.788,183.688,233.748,181.715,236.708,179.741z"
       id="path96" /><path
       fill="none"
       stroke="#000000"
       stroke-width="2.2223"
       stroke-linejoin="round"
       d="M233.995,188.375   c3.595,1.821,7.565,0.618,10.608-1.727"
       id="path98" /><path
       fill="none"
       stroke="#000000"
       stroke-width="2.2223"
       stroke-linejoin="round"
       d="M253.237,138.049   c-3.066,0.718-28.125,22.32-28.617,7.4c-3.856,2.278-7.566,7.102-9.745,10.732c-5.634,9.388-2.479,1.539-7.031-3.331"
       id="path100" /><path
       fill="#A89187"
       stroke="#000000"
       stroke-width="2.2223"
       stroke-linejoin="round"
       d="M221.167,161.731   c12.308-3.545,24.293-1.002,36.511-3.207c-4.563,3.503-1.172,11.002-7.401,12.582c-7.96,2.02-8.242-10.563-14.802-7.154   c-0.096,0.05-1.844,5.791-2.837,6.784c-1.658,1.657-7.443,3.515-9.745,2.097c-2.694-1.659-2.22-4.285-2.22-7.154   c0-2.998-11.075-9.756-13.568-11.841C211.792,156.469,216.479,159.101,221.167,161.731z"
       id="path102" /><path
       fill="none"
       stroke="#000000"
       stroke-width="2.2223"
       stroke-linejoin="round"
       d="M70.187,31.477   c16.729,37.205,29.784,75.4,37.251,115.7c4.45,24.017,3.893,49.93-8.38,71.643c-7.31,12.933-29.426,26.861-44.167,17.909"
       id="path104" /><path
       fill="none"
       stroke="#000000"
       stroke-width="2.2223"
       stroke-linejoin="round"
       d="M14.926,60.338   c1.473,26.324,1.264,52.716,3.947,78.944c2.327,22.747,7.019,50.674,18.965,70.587c6.086,10.144,13.43,19.374,26.181,19.705   c13.786,0.358,24.773-7.944,31.249-19.453c12.681-22.54,8.521-53.609,2.549-77.5C89.27,98.428,74.23,66.332,64.512,32.708"
       id="path106" /><path
       fill="none"
       stroke="#000000"
       stroke-width="2.2223"
       stroke-linejoin="round"
       d="M22.327,58.858   c-0.44,36.298,1.681,73.525,8.634,109.164c3.352,17.181,7.268,40.886,24.716,49.609c12.914,6.456,29.471,5.108,36.712-8.534"
       id="path108" /><path
       fill="none"
       stroke="#000000"
       stroke-width="2.2223"
       stroke-linejoin="round"
       d="M29.728,57.378   c0,28.124-0.714,56.56,3.641,84.437c3.259,20.859,7.018,45.721,20.042,63.09c12.786,17.051,32.775,9.137,39.348-8.389   c7.831-20.879,0.553-51.685-6.044-72.035c-9.472-29.219-16.141-59.612-27.384-88.319"
       id="path110" /><path
       fill="none"
       stroke="#000000"
       stroke-width="2.2223"
       stroke-linejoin="round"
       d="M54.891,37.891   c10.363,26.333,14.829,55.237,21.709,82.643c3.464,13.8,6.853,27.32,8.269,41.491c1.223,12.239,4.549,43.607-11.97,47.813"
       id="path112" /><path
       fill="none"
       stroke="#000000"
       stroke-width="2.2223"
       stroke-linejoin="round"
       d="M49.957,39.122   c8.647,24.805,13.966,52.019,18.064,77.977c2.697,17.086,25.195,78.271,3.152,88.299"
       id="path114" /><path
       fill="#757575"
       d="M48.724,54.911c3.351,6.632,3.925,15.433,5.427,22.696c2.428,11.744,4.287,23.673,7.081,35.416   c5.485,23.048,11.044,47.429,11.668,71.158c0.142,5.393,0.582,11.975-1.727,17.022c-2.553,5.583-2.378,4.852-7.4,2.343   c-6.944-3.468-10.154-15.923-12.335-22.572c-7.579-23.1-12.828-47.706-12.828-72.036c0-10.166-0.987-20.388-0.987-30.589   c0-5.014-0.089-10.038,0-15.051C37.782,54.355,40.049,55.898,48.724,54.911z"
       id="path116" /><line
       fill="none"
       stroke="#000000"
       stroke-width="2.2223"
       stroke-linejoin="round"
       x1="189.342"
       y1="98.085"
       x2="469.1"
       y2="82.048"
       id="line118" /><path
       stroke="#000000"
       stroke-width="2.2223"
       stroke-linejoin="round"
       d="M200.69,52.444c8.824-1.997,8.653,7.221,10.941,13.872   c2.767,8.04,5.534,16.08,8.301,24.12C210.418,94.145,203.359,59.832,200.69,52.444z"
       id="path120" /><path
       stroke="#000000"
       stroke-width="2.2223"
       stroke-linejoin="round"
       d="M214.505,52.444c8.791-1.974,8.578,7.044,10.852,13.692   c2.715,7.935,5.43,15.871,8.145,23.806c-8.537,1.965-8.467-7.302-10.695-13.692C220.04,68.315,217.272,60.379,214.505,52.444z"
       id="path122" /><path
       stroke="#000000"
       stroke-width="2.2223"
       stroke-linejoin="round"
       d="M229.801,52.444c8.63-1.97,8.123,5.305,10.26,11.94   c2.665,8.273,5.331,16.547,7.996,24.82C238.009,92.968,232.36,59.973,229.801,52.444z"
       id="path124" /><path
       stroke="#000000"
       stroke-width="2.2223"
       stroke-linejoin="round"
       d="M277.167,48.252c8.824-2.361,8.482,6.788,10.671,13.444   c2.61,7.935,5.221,15.871,7.831,23.806c-8.533,1.955-8.352-7.199-10.515-13.602C282.492,64.018,279.83,56.135,277.167,48.252z"
       id="path126" /><path
       stroke="#000000"
       stroke-width="2.2223"
       stroke-linejoin="round"
       d="M288.515,47.51c9.049-2.354,8.744,6.564,11.099,13.448   c2.714,7.935,5.429,15.871,8.144,23.806c-9.049,2.354-8.744-6.564-11.098-13.448C293.945,63.381,291.23,55.445,288.515,47.51z"
       id="path128" /><path
       stroke="#000000"
       stroke-width="2.2223"
       stroke-linejoin="round"
       d="M303.564,46.772c9.037-2.348,8.682,6.467,11.008,13.354   c2.662,7.884,5.325,15.767,7.987,23.651c-8.784,2.34-8.568-6.727-10.851-13.356C308.994,62.538,306.279,54.655,303.564,46.772z"
       id="path130" /><path
       stroke="#000000"
       stroke-width="2.2223"
       stroke-linejoin="round"
       d="M323.3,45.536c8.521-2.336,8.511,6.996,10.785,13.356   c2.819,7.883,5.639,15.766,8.458,23.648c-8.777,2.347-8.619-6.733-10.942-13.354C328.834,61.304,326.066,53.42,323.3,45.536z"
       id="path132" /><path
       stroke="#000000"
       stroke-width="2.2223"
       stroke-linejoin="round"
       d="M331.935,45.043c10.157-3.293,16.446,29.38,19.242,37.005   c-9.028,2.347-8.73-6.478-11.098-13.354C337.364,60.81,334.649,52.927,331.935,45.043z"
       id="path134" /><path
       stroke="#000000"
       stroke-width="2.2223"
       stroke-linejoin="round"
       d="M350.19,44.056c8.775-2.34,8.618,6.737,10.941,13.356   c2.767,7.883,5.534,15.766,8.301,23.648c-8.806,2.741-8.632-6.576-10.941-13.199C355.725,59.927,352.957,51.992,350.19,44.056z"
       id="path136" /><path
       stroke="#000000"
       stroke-width="2.2223"
       stroke-linejoin="round"
       d="M365.485,43.318c8.795-2.727,8.569,6.48,10.852,13.108   c2.715,7.883,5.43,15.766,8.145,23.648c-9.048,2.723-8.683-6.222-11.008-13.108C370.811,59.083,368.148,51.201,365.485,43.318z"
       id="path138" /><path
       stroke="#000000"
       stroke-width="2.2223"
       stroke-linejoin="round"
       d="M382.508,42.331c8.418-2.342,8.044,5.381,10.174,11.771   c2.775,8.329,5.552,16.657,8.328,24.986c-8.555,2.731-8.357-6.723-10.514-13.108C387.833,58.097,385.171,50.214,382.508,42.331z"
       id="path140" /><path
       stroke="#000000"
       stroke-width="2.2223"
       stroke-linejoin="round"
       d="M390.896,42.083c9.921-4.19,16.104,29.025,18.749,36.512   c-8.418,2.707-8.084-5.144-10.254-11.526C396.559,58.74,393.728,50.411,390.896,42.083z"
       id="path142" /><path
       stroke="#000000"
       stroke-width="2.2223"
       stroke-linejoin="round"
       d="M401.257,41.344c8.366-1.958,8.112,5.571,10.335,11.938   c2.887,8.272,5.774,16.545,8.661,24.818c-8.795,2.728-8.569-6.479-10.852-13.108C406.687,57.11,403.972,49.227,401.257,41.344z"
       id="path144" /><path
       stroke="#000000"
       stroke-width="2.2223"
       stroke-linejoin="round"
       d="M414.332,40.603c8.813-2.729,8.47,6.462,10.671,13.109   c2.61,7.884,5.221,15.767,7.831,23.651c-8.418,2.337-8.044-5.384-10.174-11.774C419.885,57.26,417.108,48.931,414.332,40.603z"
       id="path146" /><path
       stroke="#000000"
       stroke-width="2.2223"
       stroke-linejoin="round"
       d="M430.614,39.616c8.547-2.731,8.409,6.733,10.604,13.109   c2.715,7.883,5.43,15.767,8.145,23.651C439.885,80.058,433.235,46.896,430.614,39.616z"
       id="path148" /><path
       stroke="#000000"
       stroke-width="2.2223"
       stroke-linejoin="round"
       d="M208.091,69.22c5.558-0.085,17.678-3.608,17.516,4.689   C220.207,73.74,208.973,76.448,208.091,69.22z"
       id="path150" /><path
       stroke="#000000"
       stroke-width="2.2223"
       stroke-linejoin="round"
       d="M442.209,71.935c6.077-0.308,20.797-4.825,21.463,3.947   C457.762,76.106,442.988,80.352,442.209,71.935z"
       id="path152" /><path
       stroke="#000000"
       stroke-width="2.2223"
       stroke-linejoin="round"
       d="M229.801,52.444c5.933,0,18.869-3.467,19.489,4.934   C243.713,57.302,229.76,60.624,229.801,52.444z"
       id="path154" /><path
       stroke="#000000"
       stroke-width="2.2223"
       stroke-linejoin="round"
       d="M260.145,83.528c0.774,1.427,0.932,3.405,1.727,4.934   c-5.783,0.371-20.521,5.015-20.969-3.454C247.274,84.313,253.87,84.425,260.145,83.528z"
       id="path156" /><path
       stroke="#000000"
       stroke-width="2.2223"
       stroke-linejoin="round"
       d="M178.487,53.431c5.47,0,19.322-3.475,19.243,4.44   C192.106,57.951,178.841,61.588,178.487,53.431z"
       id="path158" /><path
       stroke="#000000"
       stroke-width="2.2223"
       stroke-linejoin="round"
       d="M184.408,53.431c8.821-1.987,8.54,7.119,10.762,13.783   c2.662,7.988,5.325,15.976,7.987,23.964c-8.145,3.446-8.569-7.974-10.448-13.47C189.942,69.615,187.175,61.523,184.408,53.431z"
       id="path160" /><path
       stroke="#000000"
       stroke-width="2.2223"
       stroke-linejoin="round"
       d="M340.815,62.067c5.974-0.299,21.194-4.875,21.463,3.947   C356.406,66.234,341.285,70.528,340.815,62.067z"
       id="path162" /><path
       stroke="#000000"
       stroke-width="2.2223"
       stroke-linejoin="round"
       d="M283.828,65.521c5.271,0,16.817-3.115,17.269,4.44   C295.826,69.961,284.279,73.076,283.828,65.521z"
       id="path164" /><line
       fill="none"
       stroke="#000000"
       stroke-width="2.2223"
       stroke-linejoin="round"
       x1="417.046"
       y1="110.665"
       x2="461.945"
       y2="107.953"
       id="line166" /><line
       fill="none"
       stroke="#000000"
       stroke-width="2.2223"
       stroke-linejoin="round"
       x1="420.006"
       y1="162.965"
       x2="466.386"
       y2="160.252"
       id="line168" /><line
       fill="none"
       stroke="#000000"
       stroke-width="2.2223"
       stroke-linejoin="round"
       x1="418.032"
       y1="116.586"
       x2="462.686"
       y2="112.887"
       id="line170" /><line
       fill="none"
       stroke="#000000"
       stroke-width="2.2223"
       stroke-linejoin="round"
       x1="419.02"
       y1="167.899"
       x2="466.386"
       y2="165.186"
       id="line172" /><line
       fill="none"
       stroke="#000000"
       stroke-width="2.2223"
       stroke-linejoin="round"
       x1="419.76"
       y1="121.52"
       x2="463.672"
       y2="117.821"
       id="line174" /><line
       fill="none"
       stroke="#000000"
       stroke-width="2.2223"
       stroke-linejoin="round"
       x1="417.786"
       y1="173.08"
       x2="465.893"
       y2="169.873"
       id="line176" /><line
       fill="none"
       stroke="#000000"
       stroke-width="2.2223"
       stroke-linejoin="round"
       x1="420.499"
       y1="126.209"
       x2="464.658"
       y2="122.507"
       id="line178" /><line
       fill="none"
       stroke="#000000"
       stroke-width="2.2223"
       stroke-linejoin="round"
       x1="417.539"
       y1="177.027"
       x2="464.658"
       y2="174.066"
       id="line180" /><line
       fill="none"
       stroke="#000000"
       stroke-width="2.2223"
       stroke-linejoin="round"
       x1="421.239"
       y1="131.141"
       x2="465.398"
       y2="127.934"
       id="line182" /><line
       fill="none"
       stroke="#000000"
       stroke-width="2.2223"
       stroke-linejoin="round"
       x1="416.553"
       y1="181.468"
       x2="463.672"
       y2="178.754"
       id="line184" /><line
       fill="none"
       stroke="#000000"
       stroke-width="2.2223"
       stroke-linejoin="round"
       x1="421.979"
       y1="137.062"
       x2="465.893"
       y2="132.868"
       id="line186" /><line
       fill="none"
       stroke="#000000"
       stroke-width="2.2223"
       stroke-linejoin="round"
       x1="415.318"
       y1="185.415"
       x2="463.179"
       y2="183.194"
       id="line188" /><line
       fill="none"
       stroke="#000000"
       stroke-width="2.2223"
       stroke-linejoin="round"
       x1="421.239"
       y1="141.996"
       x2="466.632"
       y2="137.802"
       id="line190" /><line
       fill="none"
       stroke="#000000"
       stroke-width="2.2223"
       stroke-linejoin="round"
       x1="415.318"
       y1="189.608"
       x2="463.179"
       y2="187.142"
       id="line192" /><line
       fill="none"
       stroke="#000000"
       stroke-width="2.2223"
       stroke-linejoin="round"
       x1="421.733"
       y1="146.93"
       x2="466.879"
       y2="142.982"
       id="line194" /><line
       fill="none"
       stroke="#000000"
       stroke-width="2.2223"
       stroke-linejoin="round"
       x1="414.579"
       y1="193.803"
       x2="463.179"
       y2="191.582"
       id="line196" /><line
       fill="none"
       stroke="#000000"
       stroke-width="2.2223"
       stroke-linejoin="round"
       x1="420.499"
       y1="158.031"
       x2="466.632"
       y2="154.824"
       id="line198" /><line
       fill="none"
       stroke="#000000"
       stroke-width="2.2223"
       stroke-linejoin="round"
       x1="421.239"
       y1="152.604"
       x2="466.632"
       y2="148.903"
       id="line200" /><line
       fill="none"
       stroke="#000000"
       stroke-width="2.2223"
       stroke-linejoin="round"
       x1="414.085"
       y1="197.01"
       x2="463.179"
       y2="195.283"
       id="line202" /><path
       fill="#A89187"
       stroke="#000000"
       stroke-width="2.2223"
       stroke-linejoin="round"
       d="M293.203,157.291   c13.381-1.761,26.767-3.46,40.161-5.12c6.6-0.817,6.308-0.32,7.205-6.475c0.613-4.203-0.323-9.104-1.232-13.198   c-1.475-6.639-2.313-16.161-9.877-15.556c-14.964,1.197-29.927,2.394-44.891,3.591   C290.152,132.021,293.515,144.364,293.203,157.291z"
       id="path204" /><line
       fill="none"
       stroke="#000000"
       stroke-width="2.2223"
       stroke-linejoin="round"
       x1="287.035"
       y1="204.164"
       x2="333.168"
       y2="198.983"
       id="line206" /><line
       fill="none"
       stroke="#000000"
       stroke-width="2.2223"
       stroke-linejoin="round"
       x1="294.683"
       y1="160.992"
       x2="338.349"
       y2="156.058"
       id="line208" /><line
       fill="none"
       stroke="#000000"
       stroke-width="2.2223"
       stroke-linejoin="round"
       x1="295.916"
       y1="166.172"
       x2="340.322"
       y2="160.745"
       id="line210" /><line
       fill="none"
       stroke="#000000"
       stroke-width="2.2223"
       stroke-linejoin="round"
       x1="295.669"
       y1="171.6"
       x2="300.851"
       y2="171.106"
       id="line212" /><line
       fill="none"
       stroke="#000000"
       stroke-width="2.2223"
       stroke-linejoin="round"
       x1="304.551"
       y1="170.859"
       x2="340.568"
       y2="166.172"
       id="line214" /><line
       fill="none"
       stroke="#000000"
       stroke-width="2.2223"
       stroke-linejoin="round"
       x1="295.669"
       y1="176.78"
       x2="339.582"
       y2="171.106"
       id="line216" /><line
       fill="none"
       stroke="#000000"
       stroke-width="2.2223"
       stroke-linejoin="round"
       x1="294.189"
       y1="182.208"
       x2="339.582"
       y2="176.04"
       id="line218" /><line
       fill="none"
       stroke="#000000"
       stroke-width="2.2223"
       stroke-linejoin="round"
       x1="294.189"
       y1="186.648"
       x2="339.582"
       y2="180.48"
       id="line220" /><line
       fill="none"
       stroke="#000000"
       stroke-width="2.2223"
       stroke-linejoin="round"
       x1="292.462"
       y1="191.582"
       x2="306.277"
       y2="189.608"
       id="line222" /><line
       fill="none"
       stroke="#000000"
       stroke-width="2.2223"
       stroke-linejoin="round"
       x1="311.705"
       y1="189.362"
       x2="337.608"
       y2="185.908"
       id="line224" /><line
       fill="none"
       stroke="#000000"
       stroke-width="2.2223"
       stroke-linejoin="round"
       x1="291.229"
       y1="196.023"
       x2="335.389"
       y2="190.596"
       id="line226" /><line
       fill="none"
       stroke="#000000"
       stroke-width="2.2223"
       stroke-linejoin="round"
       x1="289.009"
       y1="200.217"
       x2="334.154"
       y2="194.789"
       id="line228" /><path
       fill="#A89187"
       stroke="#000000"
       stroke-width="2.2223"
       stroke-linejoin="round"
       d="M355.124,150.137   c13.612-1.408,27.188-2.651,40.834-3.682c6.957-0.525,6.057,0.181,7.52-5.692c0.896-3.6,0.332-8.446-0.124-12.089   c-0.826-6.601-1.601-16.223-8.833-15.724c-15.188,1.047-30.376,2.095-45.563,3.142   C354.256,126.961,354.022,138.359,355.124,150.137z"
       id="path230" /><line
       fill="none"
       stroke="#000000"
       stroke-width="2.2223"
       stroke-linejoin="round"
       x1="355.864"
       y1="154.824"
       x2="403.478"
       y2="150.384"
       id="line232" /><line
       fill="none"
       stroke="#000000"
       stroke-width="2.2223"
       stroke-linejoin="round"
       x1="355.617"
       y1="159.512"
       x2="403.971"
       y2="155.317"
       id="line234" /><line
       fill="none"
       stroke="#000000"
       stroke-width="2.2223"
       stroke-linejoin="round"
       x1="381.768"
       y1="162.472"
       x2="402.737"
       y2="160.745"
       id="line236" /><line
       fill="none"
       stroke="#000000"
       stroke-width="2.2223"
       stroke-linejoin="round"
       x1="355.371"
       y1="164.692"
       x2="376.587"
       y2="162.965"
       id="line238" /><line
       fill="none"
       stroke="#000000"
       stroke-width="2.2223"
       stroke-linejoin="round"
       x1="355.124"
       y1="170.366"
       x2="401.75"
       y2="166.172"
       id="line240" /><line
       fill="none"
       stroke="#000000"
       stroke-width="2.2223"
       stroke-linejoin="round"
       x1="355.371"
       y1="175.547"
       x2="402.49"
       y2="171.847"
       id="line242" /><line
       fill="none"
       stroke="#000000"
       stroke-width="2.2223"
       stroke-linejoin="round"
       x1="355.371"
       y1="181.715"
       x2="401.75"
       y2="177.768"
       id="line244" /><line
       fill="none"
       stroke="#000000"
       stroke-width="2.2223"
       stroke-linejoin="round"
       x1="353.397"
       y1="187.635"
       x2="400.271"
       y2="183.688"
       id="line246" /><line
       fill="none"
       stroke="#000000"
       stroke-width="2.2223"
       stroke-linejoin="round"
       x1="352.164"
       y1="192.569"
       x2="399.283"
       y2="188.869"
       id="line248" /><line
       fill="none"
       stroke="#000000"
       stroke-width="2.2223"
       stroke-linejoin="round"
       x1="349.697"
       y1="200.71"
       x2="397.063"
       y2="197.503"
       id="line250" /><line
       fill="none"
       stroke="#000000"
       stroke-width="2.2223"
       stroke-linejoin="round"
       x1="351.67"
       y1="197.01"
       x2="398.297"
       y2="193.803"
       id="line252" /></g></svg>